<svg class="ldi-svp4in" xmlns="http://www.w3.org/2000/svg" xmlns:xlink="http://www.w3.org/1999/xlink" viewBox="0 0 100 100" preserveAspectRatio="xMidYMid"><!--?xml version="1.0" encoding="utf-8"?--><!--Generator: Adobe Illustrator 21.0.0, SVG Export Plug-In . SVG Version: 6.00 Build 0)--><svg version="1.1" id="圖層_1" xmlns="http://www.w3.org/2000/svg" xmlns:xlink="http://www.w3.org/1999/xlink" x="0px" y="0px" viewBox="0 0 100 100" style="transform-origin: 50px 50px 0px;" xml:space="preserve"><g style="transform-origin: 50px 50px 0px;"><g style="transform-origin: 50px 50px 0px; transform: scale(1);"><g style="transform-origin: 50px 50px 0px;"><g><style type="text/css" class="ld ld-blink" style="transform-origin: 50px 50px 0px; animation-duration: 7.5s; animation-delay: -7.5s; animation-direction: normal;">.st0{fill:#666666;} .st1{fill:#EBB885;} .st2{fill:#E0E0E0;} .st3{fill:#A0C8D7;} .st4{fill:#66503A;} .st5{fill:#ABBD81;} .st6{fill:#A0C8D7;stroke:#333333;stroke-width:2;stroke-miterlimit:10;} .st7{fill:#FFFFFF;} .st8{fill:#66503A;stroke:#333333;stroke-width:2;stroke-miterlimit:10;} .st9{fill:#E0E0E0;stroke:#333333;stroke-width:2;stroke-miterlimit:10;} .st10{fill:#03AFF3;} .st11{fill:none;stroke:#333333;stroke-width:5;stroke-linecap:round;stroke-miterlimit:10;} .st12{fill:#8C6239;} .st13{fill:#F5E6C8;} .st14{fill:#333333;} .st15{fill:#F47E60;} .st16{fill:#E15B64;} .st17{fill:none;stroke:#000000;stroke-width:6;stroke-miterlimit:10;} .st18{fill:#4A3827;} .st19{fill:none;stroke:#666666;stroke-width:5.8262;stroke-linecap:round;stroke-miterlimit:10;} .st20{fill:#77A4BD;} .st21{fill:#F8B26A;} .st22{fill:#849B87;} .st23{fill:none;} .st24{fill:#FFFFFF;stroke:#000000;stroke-width:4;stroke-miterlimit:10;} .st25{fill:none;stroke:#849B87;stroke-width:4;stroke-miterlimit:10;} .st26{fill:none;stroke:#849B87;stroke-width:4.1718;stroke-miterlimit:10;} .st27{fill:#C33737;} .st28{fill:#FFDC6C;stroke:#FFFFFF;stroke-width:2.4393;stroke-miterlimit:10;} .st29{stroke:#000000;stroke-width:3;stroke-miterlimit:10;} .st30{stroke:#000000;stroke-width:3;stroke-linecap:round;stroke-linejoin:round;stroke-miterlimit:10;} .st31{fill:#E0E0E0;stroke:#000000;stroke-width:3;stroke-miterlimit:10;} .st32{fill:#735441;} .st33{fill:#C8DC96;} .st34{fill:#F5E6C8;stroke:#C33737;stroke-width:6;stroke-miterlimit:10;} .st35{fill:#F5E6C8;stroke:#000000;stroke-width:4.2393;stroke-miterlimit:10;} .st36{fill:#F5E169;} .st37{fill:#FFDC6C;} .st38{fill:none;stroke:#000000;stroke-width:5.1342;stroke-miterlimit:10;} .st39{fill:none;stroke:#000000;stroke-width:4.908;stroke-miterlimit:10;} .st40{fill:none;stroke:#000000;stroke-width:5.0371;stroke-miterlimit:10;} .st41{fill:none;stroke:#000000;stroke-width:5.4333;stroke-miterlimit:10;} .st42{fill:none;stroke:#333333;stroke-width:4.308;stroke-miterlimit:10;} .st43{fill:#F8B26A;stroke:#333333;stroke-width:3;stroke-miterlimit:10;} .st44{fill:#FFFF00;stroke:#333333;stroke-width:3;stroke-miterlimit:10;} .st45{fill:#F8B26A;stroke:#F47E60;stroke-width:2.326;stroke-miterlimit:10;} .st46{fill:#333333;stroke:#333333;stroke-width:3;stroke-miterlimit:10;} .st47{fill:#8A8A8A;} .st48{fill:none;stroke:#333333;stroke-width:3;stroke-linecap:round;stroke-linejoin:round;stroke-miterlimit:10;} .st49{fill:none;stroke:#333333;stroke-width:2;stroke-linecap:round;stroke-linejoin:round;stroke-miterlimit:10;} .st50{fill:#983733;} .st51{fill:#D50D01;} .st52{fill:#81C927;} .st53{fill:#C33737;stroke:#333333;stroke-width:2;stroke-miterlimit:10;} .st54{fill:#F5E6C8;stroke:#333333;stroke-width:2;stroke-miterlimit:10;} .st55{fill:#FFFFFF;stroke:#333333;stroke-width:4;stroke-miterlimit:10;} .st56{fill:none;stroke:#E15B64;stroke-width:3;stroke-miterlimit:10;} .st57{fill:#FFFFFF;stroke:#333333;stroke-width:6;stroke-linecap:round;stroke-miterlimit:10;}</style><g class="ld ld-blink" style="transform-origin: 50px 50px 0px; animation-duration: 7.5s; animation-delay: -7.26562s; animation-direction: normal;"><line class="st19" x1="22.643" y1="22.148" x2="29.869" y2="80.478" stroke="#1d3f72" style="stroke: rgb(29, 63, 114);"/></g><g class="ld ld-blink" style="transform-origin: 50px 50px 0px; animation-duration: 7.5s; animation-delay: -7.03125s; animation-direction: normal;"><line class="st19" x1="22.643" y1="22.148" x2="62.503" y2="19.61" stroke="#1d3f72" style="stroke: rgb(29, 63, 114);"/></g><g class="ld ld-blink" style="transform-origin: 50px 50px 0px; animation-duration: 7.5s; animation-delay: -6.79688s; animation-direction: normal;"><line class="st19" x1="62.503" y1="19.61" x2="82.057" y2="38.018" stroke="#1d3f72" style="stroke: rgb(29, 63, 114);"/></g><g class="ld ld-blink" style="transform-origin: 50px 50px 0px; animation-duration: 7.5s; animation-delay: -6.5625s; animation-direction: normal;"><line class="st19" x1="77.091" y1="73.913" x2="82.057" y2="38.018" stroke="#1d3f72" style="stroke: rgb(29, 63, 114);"/></g><g class="ld ld-blink" style="transform-origin: 50px 50px 0px; animation-duration: 7.5s; animation-delay: -6.32812s; animation-direction: normal;"><line class="st19" x1="29.869" y1="80.478" x2="77.091" y2="73.913" stroke="#1d3f72" style="stroke: rgb(29, 63, 114);"/></g><g class="ld ld-blink" style="transform-origin: 50px 50px 0px; animation-duration: 7.5s; animation-delay: -6.09375s; animation-direction: normal;"><line class="st19" x1="51.339" y1="51.242" x2="29.869" y2="80.478" stroke="#1d3f72" style="stroke: rgb(29, 63, 114);"/></g><g class="ld ld-blink" style="transform-origin: 50px 50px 0px; animation-duration: 7.5s; animation-delay: -5.85938s; animation-direction: normal;"><line class="st19" x1="62.503" y1="19.61" x2="51.339" y2="51.242" stroke="#1d3f72" style="stroke: rgb(29, 63, 114);"/></g><g class="ld ld-blink" style="transform-origin: 50px 50px 0px; animation-duration: 7.5s; animation-delay: -5.625s; animation-direction: normal;"><line class="st19" x1="22.643" y1="22.148" x2="51.339" y2="51.242" stroke="#1d3f72" style="stroke: rgb(29, 63, 114);"/></g><g class="ld ld-blink" style="transform-origin: 50px 50px 0px; animation-duration: 7.5s; animation-delay: -5.39062s; animation-direction: normal;"><line class="st19" x1="82.057" y1="38.018" x2="51.339" y2="51.242" stroke="#1d3f72" style="stroke: rgb(29, 63, 114);"/></g><g class="ld ld-blink" style="transform-origin: 50px 50px 0px; animation-duration: 7.5s; animation-delay: -5.15625s; animation-direction: normal;"><line class="st19" x1="77.091" y1="73.913" x2="51.339" y2="51.242" stroke="#1d3f72" style="stroke: rgb(29, 63, 114);"/></g><g class="ld ld-blink" style="transform-origin: 50px 50px 0px; animation-duration: 7.5s; animation-delay: -4.92188s; animation-direction: normal;"><circle class="st14" cx="22.724" cy="22.067" r="12.067" fill="#5699d2" style="fill: rgb(86, 153, 210);"/></g><g class="ld ld-blink" style="transform-origin: 50px 50px 0px; animation-duration: 7.5s; animation-delay: -4.6875s; animation-direction: normal;"><circle class="st14" cx="62.584" cy="19.529" r="7.407" fill="#5699d2" style="fill: rgb(86, 153, 210);"/></g><g class="ld ld-blink" style="transform-origin: 50px 50px 0px; animation-duration: 7.5s; animation-delay: -4.45312s; animation-direction: normal;"><circle class="st14" cx="82.138" cy="37.775" r="7.206" fill="#5699d2" style="fill: rgb(86, 153, 210);"/></g><g class="ld ld-blink" style="transform-origin: 50px 50px 0px; animation-duration: 7.5s; animation-delay: -4.21875s; animation-direction: normal;"><circle class="st14" cx="77.172" cy="73.67" r="9.754" fill="#5699d2" style="fill: rgb(86, 153, 210);"/></g><g class="ld ld-blink" style="transform-origin: 50px 50px 0px; animation-duration: 7.5s; animation-delay: -3.98438s; animation-direction: normal;"><circle class="st14" cx="29.869" cy="80.316" r="9.684" fill="#5699d2" style="fill: rgb(86, 153, 210);"/></g><g class="ld ld-blink" style="transform-origin: 50px 50px 0px; animation-duration: 7.5s; animation-delay: -3.75s; animation-direction: normal;"><circle class="st14" cx="51.42" cy="50.999" r="14.504" fill="#5699d2" style="fill: rgb(86, 153, 210);"/></g><g class="ld ld-blink" style="transform-origin: 50px 50px 0px; animation-duration: 7.5s; animation-delay: -3.51562s; animation-direction: normal;"><path class="st2" d="M53.839,50.304c-0.121-0.07-0.25-0.128-0.378-0.187c1.182-0.777,1.896-2.207,1.623-3.779 c-0.277-1.594-1.62-2.847-3.228-3.03c-2.251-0.256-4.159,1.498-4.159,3.698c0,1.302,0.669,2.446,1.681,3.111 c-0.128,0.06-0.257,0.117-0.378,0.187c-1.454,0.839-2.436,2.406-2.436,4.205v3.178c0,0.926,0.751,1.677,1.677,1.677h3.178h3.178 c0.926,0,1.677-0.751,1.677-1.677v-3.178C56.275,52.71,55.293,51.143,53.839,50.304z" fill="#d8ebf9" style="fill: rgb(216, 235, 249);"/></g><g class="ld ld-blink" style="transform-origin: 50px 50px 0px; animation-duration: 7.5s; animation-delay: -3.28125s; animation-direction: normal;"><path class="st2" d="M24.81,20.664c-0.109-0.063-0.225-0.115-0.34-0.169c1.064-0.7,1.707-1.987,1.46-3.401 c-0.25-1.435-1.458-2.562-2.905-2.727c-2.026-0.23-3.743,1.348-3.743,3.328c0,1.171,0.602,2.201,1.513,2.8 c-0.115,0.054-0.231,0.106-0.34,0.169c-1.309,0.755-2.192,2.165-2.192,3.785v2.861c0,0.833,0.676,1.509,1.509,1.509h2.861h2.861 c0.833,0,1.509-0.676,1.509-1.509v-2.861C27.002,22.829,26.119,21.419,24.81,20.664z" fill="#d8ebf9" style="fill: rgb(216, 235, 249);"/></g><g class="ld ld-blink" style="transform-origin: 50px 50px 0px; animation-duration: 7.5s; animation-delay: -3.04688s; animation-direction: normal;"><path class="st2" d="M31.543,79.603c-0.085-0.049-0.175-0.089-0.265-0.131c0.827-0.544,1.327-1.545,1.136-2.645 c-0.194-1.116-1.134-1.993-2.26-2.121c-1.576-0.179-2.911,1.049-2.911,2.588c0,0.911,0.468,1.712,1.177,2.178 c-0.089,0.042-0.18,0.082-0.265,0.131c-1.018,0.587-1.705,1.684-1.705,2.944v2.225c0,0.648,0.526,1.174,1.174,1.174h2.225h2.225 c0.648,0,1.174-0.525,1.174-1.174v-2.225C33.248,81.287,32.561,80.19,31.543,79.603z" fill="#d8ebf9" style="fill: rgb(216, 235, 249);"/></g><g class="ld ld-blink" style="transform-origin: 50px 50px 0px; animation-duration: 7.5s; animation-delay: -2.8125s; animation-direction: normal;"><path class="st2" d="M78.866,72.956c-0.085-0.049-0.175-0.089-0.265-0.131c0.827-0.544,1.327-1.545,1.136-2.645 c-0.194-1.116-1.134-1.993-2.26-2.121c-1.576-0.179-2.911,1.049-2.911,2.588c0,0.911,0.468,1.712,1.177,2.178 c-0.089,0.042-0.18,0.082-0.265,0.131c-1.018,0.587-1.705,1.684-1.705,2.944v2.225c0,0.648,0.525,1.174,1.174,1.174h2.225h2.225 c0.648,0,1.174-0.525,1.174-1.174V75.9C80.571,74.641,79.884,73.544,78.866,72.956z" fill="#d8ebf9" style="fill: rgb(216, 235, 249);"/></g><g class="ld ld-blink" style="transform-origin: 50px 50px 0px; animation-duration: 7.5s; animation-delay: -2.57812s; animation-direction: normal;"><path class="st2" d="M83.344,36.947c-0.061-0.035-0.125-0.064-0.189-0.094c0.591-0.389,0.948-1.104,0.811-1.89 c-0.139-0.797-0.81-1.423-1.614-1.515c-1.126-0.128-2.079,0.749-2.079,1.849c0,0.651,0.335,1.223,0.84,1.555 c-0.064,0.03-0.128,0.059-0.189,0.094c-0.727,0.419-1.218,1.203-1.218,2.103v1.589c0,0.463,0.375,0.838,0.838,0.838h1.589h1.589 c0.463,0,0.838-0.375,0.838-0.838V39.05C84.562,38.15,84.071,37.366,83.344,36.947z" fill="#d8ebf9" style="fill: rgb(216, 235, 249);"/></g><g class="ld ld-blink" style="transform-origin: 50px 50px 0px; animation-duration: 7.5s; animation-delay: -2.34375s; animation-direction: normal;"><path class="st2" d="M63.741,19.019c-0.061-0.035-0.125-0.064-0.189-0.094c0.591-0.389,0.948-1.104,0.811-1.89 c-0.139-0.797-0.81-1.423-1.614-1.515c-1.126-0.128-2.079,0.749-2.079,1.849c0,0.651,0.335,1.223,0.84,1.555 c-0.064,0.03-0.128,0.059-0.189,0.094c-0.727,0.419-1.218,1.203-1.218,2.103v1.589c0,0.463,0.375,0.838,0.838,0.838h1.589h1.589 c0.463,0,0.838-0.375,0.838-0.838v-1.589C64.959,20.222,64.468,19.438,63.741,19.019z" fill="#d8ebf9" style="fill: rgb(216, 235, 249);"/></g><metadata xmlns:d="https://loading.io/stock/" class="ld ld-blink" style="transform-origin: 50px 50px 0px; animation-duration: 7.5s; animation-delay: -2.10938s; animation-direction: normal;"><d:name class="ld ld-blink" style="transform-origin: 50px 50px 0px; animation-duration: 7.5s; animation-delay: -1.875s; animation-direction: normal;">social</d:name><d:tags class="ld ld-blink" style="transform-origin: 50px 50px 0px; animation-duration: 7.5s; animation-delay: -1.64062s; animation-direction: normal;">connection,link,relationship,network,society,social,business</d:tags><d:license class="ld ld-blink" style="transform-origin: 50px 50px 0px; animation-duration: 7.5s; animation-delay: -1.40625s; animation-direction: normal;">rf</d:license><d:slug class="ld ld-blink" style="transform-origin: 50px 50px 0px; animation-duration: 7.5s; animation-delay: -1.17188s; animation-direction: normal;">svp4in</d:slug></metadata></g></g></g></g><style type="text/css" class="ld ld-blink" style="transform-origin: 50px 50px 0px; animation-duration: 7.5s; animation-delay: -0.9375s; animation-direction: normal;">path,ellipse,circle,rect,polygon,polyline,line { stroke-width: 0; }@keyframes ld-blink {
  0% {
    opacity: 1;
  }
  49% {
    opacity: 1;
  }
  50% {
    opacity: 0;
  }
  100% {
    opacity: 0;
  }
}
@-webkit-keyframes ld-blink {
  0% {
    opacity: 1;
  }
  49% {
    opacity: 1;
  }
  50% {
    opacity: 0;
  }
  100% {
    opacity: 0;
  }
}
.ld.ld-blink {
  -webkit-animation: ld-blink 1s infinite linear;
  animation: ld-blink 1s infinite linear;
}
</style></svg></svg>